<svg width="20" height="8" viewBox="0 0 20 8" fill="none" xmlns="http://www.w3.org/2000/svg">
<path d="M10.5497 4.00004L12.886 1.66369C13.038 1.51172 13.038 1.26601 12.886 1.11404C12.734 0.962069 12.4883 0.962069 12.3363 1.11404L9.99996 3.45039L7.66368 1.11404C7.51164 0.962069 7.266 0.962069 7.11403 1.11404C6.96199 1.26601 6.96199 1.51172 7.11403 1.66369L9.45031 4.00004L7.11403 6.33639C6.96199 6.48836 6.96199 6.73407 7.11403 6.88604C7.18977 6.96185 7.28935 6.99993 7.38886 6.99993C7.48837 6.99993 7.58788 6.96185 7.66368 6.88604L9.99996 4.54969L12.3363 6.88604C12.4121 6.96185 12.5116 6.99993 12.6111 6.99993C12.7107 6.99993 12.8102 6.96185 12.886 6.88604C13.038 6.73407 13.038 6.48836 12.886 6.33639L10.5497 4.00004Z" fill="#6B6B6B"/>
</svg>
