<svg width="18" height="18" viewBox="0 0 18 18" fill="none" xmlns="http://www.w3.org/2000/svg">
<path d="M17.78 16.7197L12.6613 11.601C13.6529 10.3763 14.2498 8.82 14.2498 7.12503C14.2498 3.19657 11.0534 9.15527e-05 7.1249 9.15527e-05C3.19644 9.15527e-05 0 3.19654 0 7.125C0 11.0535 3.19648 14.2499 7.12493 14.2499C8.8199 14.2499 10.3761 13.653 11.6009 12.6615L16.7196 17.7802C16.8658 17.9264 17.0578 17.9999 17.2498 17.9999C17.4418 17.9999 17.6338 17.9264 17.7801 17.7802C18.0733 17.4869 18.0733 17.0129 17.78 16.7197ZM7.12493 12.7499C4.02296 12.7499 1.5 10.227 1.5 7.125C1.5 4.02302 4.02296 1.50005 7.12493 1.50005C10.2269 1.50005 12.7499 4.02302 12.7499 7.125C12.7499 10.227 10.2269 12.7499 7.12493 12.7499Z" fill="#CFCFCF"/>
</svg>
